<?xml version="1.0" encoding="utf-8"?>
<!-- Generator: Adobe Illustrator 16.0.0, SVG Export Plug-In . SVG Version: 6.00 Build 0)  -->
<!DOCTYPE svg PUBLIC "-//W3C//DTD SVG 1.1//EN" "http://www.w3.org/Graphics/SVG/1.1/DTD/svg11.dtd">
<svg version="1.1" id="Layer_1" xmlns="http://www.w3.org/2000/svg" xmlns:xlink="http://www.w3.org/1999/xlink" x="0px" y="0px"
	 width="454px" height="143px" viewBox="0 0 454 143" enable-background="new 0 0 454 143" xml:space="preserve">
<g>
	<path fill="#FFFFFF" d="M192.484,96.717c-3.262,4.854-10.014,7.966-16.841,7.966c-11.53,0-20.785-9.028-20.785-19.951
		c0-11.076,8.875-20.027,19.875-20.027c9.482,0,16.765,6.372,19.116,13.502L172.458,93.53c0.985,0.38,2.047,0.455,3.185,0.455
		c3.262,0,6.524-1.137,8.269-3.868L192.484,96.717z M166.085,87.234l13.958-9.938c-1.517-1.138-3.262-1.82-5.31-1.82
		c-4.931,0-8.951,3.869-8.951,9.255C165.782,85.642,165.857,86.477,166.085,87.234"/>
	<path fill="#FFFFFF" d="M236.465,103.848h-10.696V84.731c0-6.145-3.566-9.255-7.965-9.255c-4.779,0-9.179,3.11-9.179,9.255v19.116
		h-10.772V65.539h10.772v2.655c2.124-2.427,6.6-3.489,10.089-3.489c10.469,0,17.751,8.951,17.751,20.027V103.848z"/>
	<path fill="#FFFFFF" d="M90.79,87.452c-3.291,4.308-8.36,7.023-14.111,7.023c-10.222,0-18.127-8.305-18.127-18.925
		c0-10.461,7.905-18.925,18.047-18.925c7.698,0,14.222,4.957,16.865,11.97c3.999,3.996,9.028,6.823,13.919,8.533
		c0.026-0.523,0.04-1.049,0.04-1.578c0-17.009-13.736-30.744-30.824-30.744c-17.009,0-30.744,13.735-30.744,30.744
		c0,17.008,13.735,30.823,30.824,30.823c14.082,0,25.92-9.47,29.577-22.381C101.247,84.131,95.765,85.186,90.79,87.452"/>
	<path fill="#FFFFFF" d="M131.647,64.705c-3.489,0-7.662,1.669-9.331,3.489v-2.655h-10.772v12.789
		c5.374,1.221,10.129,1.008,12.533-0.563l-0.003,0.012c0.459-0.301,0.941-0.543,1.435-0.73c1.408-1.002,3.145-1.568,5.076-1.568
		c4.93,0,8.952,3.793,8.952,9.179c0,5.462-4.022,9.33-8.952,9.33c-3.319,0-6.071-1.701-7.549-4.438
		c-0.065-0.121-0.313-0.498-0.374-0.565c-0.156-0.171-0.306-0.35-0.448-0.538l-0.002,0.012c-1.623-2.15-5.629-3.704-10.668-4.257
		v37.931h10.772v-21.013c2.049,2.428,5.917,3.566,9.103,3.566c10.469,0,19.041-9.028,19.041-20.103
		C150.46,73.655,142.191,64.705,131.647,64.705"/>
	<path fill="#FFFFFF" d="M39.57,37.811c2.868-2.839,6.064-5.348,9.531-7.455c7.781-4.73,16.907-7.456,26.658-7.456
		c9.752,0,18.879,2.726,26.659,7.455c3.467,2.108,6.663,4.617,9.531,7.456c2.304,2.28,4.391,4.777,6.234,7.456
		c1.213,1.76,2.316,3.601,3.304,5.511c0.627,1.211,1.906,1.944,3.271,1.944c2.771,0,4.606-2.938,3.33-5.398
		c-0.36-0.694-0.734-1.38-1.121-2.057c-1.493-2.618-3.18-5.108-5.043-7.456c-2.13-2.684-4.484-5.18-7.042-7.456
		c-3.201-2.847-6.712-5.351-10.479-7.455c-8.485-4.741-18.251-7.455-28.644-7.455c-10.392,0-20.157,2.714-28.644,7.455
		c-3.766,2.104-7.277,4.608-10.478,7.456c-2.558,2.275-4.912,4.771-7.042,7.455c-1.863,2.348-3.55,4.838-5.044,7.456
		c-0.386,0.677-0.76,1.363-1.12,2.057c-1.277,2.46,0.559,5.398,3.33,5.398c1.364,0,2.644-0.733,3.271-1.944
		c0.988-1.91,2.091-3.75,3.304-5.511C35.179,42.587,37.266,40.09,39.57,37.811"/>
	<path fill="#FFFFFF" d="M37.445,60.177c1.44,0,2.752-0.83,3.362-2.134c0.869-1.859,1.88-3.638,3.025-5.321
		c1.881-2.765,4.116-5.267,6.632-7.456c3.76-3.272,8.155-5.826,12.976-7.455c3.872-1.308,8.012-2.028,12.319-2.029
		c4.308,0,8.448,0.721,12.32,2.029c4.821,1.629,9.216,4.183,12.976,7.455c2.515,2.189,4.751,4.691,6.632,7.456
		c1.145,1.683,2.155,3.462,3.025,5.32c0.61,1.305,1.921,2.135,3.362,2.135c2.709,0,4.553-2.816,3.404-5.27
		c-0.345-0.739-0.711-1.468-1.095-2.185c-1.417-2.65-3.085-5.146-4.975-7.456c-2.269-2.774-4.857-5.274-7.704-7.455
		c-4.282-3.281-9.152-5.832-14.426-7.456c-4.277-1.316-8.816-2.028-13.519-2.028c-4.702,0-9.241,0.712-13.517,2.029
		c-5.275,1.623-10.144,4.174-14.427,7.455c-2.847,2.181-5.435,4.681-7.704,7.455c-1.89,2.31-3.558,4.806-4.976,7.456
		c-0.384,0.717-0.749,1.446-1.095,2.185C32.892,57.361,34.736,60.177,37.445,60.177"/>
	<path fill="#FFFFFF" d="M69.523,117.222c-0.005-0.025-0.01-0.051-0.015-0.075c-0.334-1.732-1.864-2.976-3.627-2.976h-0.083
		c-2.313,0-4.058,2.103-3.618,4.373l0.015,0.074c0.335,1.743,1.844,3.008,3.618,3.008h0.083
		C68.22,121.626,69.96,119.504,69.523,117.222"/>
	<path fill="#FFFFFF" d="M74.054,129.206c-0.005-0.025-0.01-0.051-0.015-0.075c-0.334-1.731-1.864-2.976-3.627-2.976h-0.083
		c-2.313,0-4.058,2.104-3.618,4.373c0.005,0.025,0.01,0.05,0.015,0.075c0.335,1.742,1.844,3.008,3.618,3.008h0.083
		C72.75,133.611,74.491,131.488,74.054,129.206"/>
	<path fill="#FFFFFF" d="M37.998,67.941l-0.007-0.022c-0.466-1.579-1.915-2.663-3.561-2.663h-0.019
		c-2.481,0-4.268,2.381-3.575,4.764c0.465,1.595,1.927,2.692,3.588,2.692h0.008C36.916,72.713,38.701,70.323,37.998,67.941"/>
	<path fill="#FFFFFF" d="M16.964,66.957c-0.002,0.025-0.004,0.051-0.006,0.076c-0.146,1.757,0.992,3.367,2.69,3.843l0.08,0.022
		c2.227,0.624,4.475-0.929,4.663-3.234l0.006-0.076c0.148-1.768-0.964-3.394-2.672-3.872l-0.08-0.023
		C19.407,63.065,17.158,64.641,16.964,66.957"/>
	<path fill="#FFFFFF" d="M38.142,109.512c-2.77-2.964-5.17-6.242-7.167-9.75c-1.603-2.817-2.939-5.785-3.992-8.861
		c-0.685-2.002-1.246-4.05-1.68-6.133c-0.164-0.784-0.792-1.844-1.463-2.28c-3.023-1.966-6.487,0.648-5.839,3.761
		c0.16,0.765,0.335,1.526,0.524,2.283c0.733,2.923,1.685,5.776,2.846,8.539c1.327,3.159,2.92,6.197,4.769,9.079
		c2.314,3.606,5.02,6.964,8.079,10.006c5.454,5.424,12.03,9.827,19.495,12.819c2.443,0.979,5.105-0.834,5.105-3.465
		c0-1.502-0.897-2.873-2.292-3.431C49.378,119.22,43.159,114.882,38.142,109.512"/>
	<path fill="#FFFFFF" d="M53.96,106.201c-4.203-2.869-7.746-6.516-10.484-10.68c-1.832-2.787-3.309-5.799-4.374-8.968
		c-0.644-1.915-1.136-3.887-1.471-5.896c-0.181-1.085-0.787-2.077-1.744-2.618c-2.892-1.637-6.12,0.779-5.625,3.769
		c0.134,0.805,0.289,1.605,0.465,2.399c0.651,2.934,1.583,5.788,2.779,8.521c1.437,3.283,3.255,6.39,5.408,9.257
		c3.239,4.315,7.239,8.085,11.88,11.071c0.803,0.516,1.626,1.007,2.468,1.472c2.494,1.377,5.557-0.417,5.557-3.266
		c0-1.36-0.744-2.605-1.934-3.264C55.878,107.44,54.9,106.844,53.96,106.201"/>
	<path fill="#FFFFFF" d="M72.178,86.501c1.41,0.594,2.958,0.923,4.582,0.923c1.623,0,3.171-0.33,4.581-0.923
		c2.466-1.039,4.508-2.889,5.793-5.214c0.861-1.559,1.369-3.331,1.448-5.214c0.007-0.166,0.025-0.33,0.025-0.497
		c0-1.677-0.354-3.271-0.985-4.717c-0.934-2.142-2.483-3.952-4.422-5.214c-1.856-1.208-4.065-1.917-6.44-1.917
		s-4.585,0.709-6.441,1.917c-1.94,1.262-3.489,3.072-4.422,5.214c-0.631,1.447-0.986,3.041-0.986,4.717
		c0,0.168,0.019,0.331,0.026,0.497c0.078,1.883,0.587,3.655,1.449,5.214C67.671,83.612,69.712,85.462,72.178,86.501"/>
	<rect fill="#FFFFFF" width="454" height="143"/>
	<g>
		<path fill="#FFFFFF" d="M252.27,103.905h-9.829V75.137h-4.789v-9.794h4.789v-1.836c0-2.376,0.45-4.609,1.35-6.697
			c0.9-2.088,2.137-3.907,3.709-5.455c1.572-1.548,3.402-2.772,5.491-3.672c2.088-0.9,4.32-1.35,6.697-1.35h7.381v9.793h-7.381
			c-1.057,0-2.035,0.186-2.935,0.558c-0.9,0.373-1.681,0.888-2.341,1.548s-1.183,1.44-1.566,2.34
			c-0.384,0.9-0.576,1.878-0.576,2.935v1.836h12.063v9.794H252.27V103.905z"/>
		<path fill="#FFFFFF" d="M306.021,103.905h-2.377l-3.816-5.293c-0.937,0.841-1.927,1.627-2.971,2.358
			c-1.044,0.732-2.143,1.368-3.294,1.908c-1.152,0.54-2.335,0.967-3.547,1.278c-1.213,0.312-2.442,0.468-3.69,0.468
			c-2.713,0-5.264-0.456-7.651-1.368c-2.389-0.912-4.478-2.237-6.265-3.979c-1.789-1.74-3.199-3.87-4.231-6.391
			s-1.548-5.389-1.548-8.605c0-3,0.516-5.755,1.548-8.264c1.032-2.508,2.442-4.663,4.231-6.463c1.787-1.8,3.876-3.198,6.265-4.195
			c2.388-0.996,4.938-1.494,7.651-1.494c1.248,0,2.484,0.156,3.708,0.468c1.225,0.312,2.413,0.744,3.565,1.296
			c1.151,0.553,2.25,1.201,3.294,1.944c1.044,0.745,2.022,1.548,2.935,2.413l3.816-4.573h2.377V103.905z M296.118,84.282
			c0-1.344-0.258-2.646-0.773-3.907c-0.517-1.26-1.219-2.376-2.106-3.348c-0.889-0.973-1.927-1.752-3.114-2.341
			c-1.188-0.588-2.455-0.882-3.799-0.882c-1.345,0-2.61,0.229-3.799,0.684c-1.188,0.456-2.221,1.129-3.097,2.017
			c-0.876,0.889-1.566,1.986-2.07,3.295s-0.756,2.803-0.756,4.482c0,1.681,0.252,3.175,0.756,4.482
			c0.504,1.309,1.194,2.407,2.07,3.295s1.908,1.561,3.097,2.016c1.188,0.457,2.454,0.685,3.799,0.685
			c1.344,0,2.61-0.294,3.799-0.882c1.188-0.588,2.226-1.368,3.114-2.341c0.888-0.972,1.59-2.088,2.106-3.349
			C295.86,86.929,296.118,85.627,296.118,84.282z"/>
		<path fill="#FFFFFF" d="M352.476,84.282c0,3.024-0.517,5.785-1.548,8.281c-1.032,2.497-2.437,4.639-4.213,6.427
			c-1.776,1.789-3.859,3.175-6.247,4.159c-2.389,0.983-4.951,1.476-7.688,1.476c-2.713,0-5.263-0.504-7.651-1.512
			c-2.389-1.009-4.477-2.412-6.265-4.213c-1.788-1.8-3.199-3.942-4.23-6.427c-1.032-2.484-1.549-5.215-1.549-8.191V50.004h9.866
			v18.003c0.527-0.671,1.17-1.272,1.926-1.8c0.757-0.528,1.572-0.959,2.448-1.296c0.876-0.336,1.782-0.594,2.719-0.774
			s1.849-0.27,2.736-0.27c2.736,0,5.299,0.51,7.688,1.53c2.388,1.021,4.471,2.443,6.247,4.267c1.776,1.825,3.181,3.979,4.213,6.463
			C351.959,78.611,352.476,81.33,352.476,84.282z M342.574,84.282c0-1.488-0.259-2.874-0.774-4.159
			c-0.517-1.283-1.219-2.394-2.106-3.33s-1.926-1.668-3.114-2.196s-2.454-0.792-3.799-0.792s-2.61,0.294-3.799,0.882
			c-1.188,0.589-2.227,1.368-3.114,2.341c-0.888,0.972-1.584,2.088-2.088,3.348c-0.504,1.261-0.757,2.563-0.757,3.907
			c0,1.488,0.253,2.868,0.757,4.141s1.2,2.376,2.088,3.313s1.927,1.674,3.114,2.214c1.188,0.54,2.454,0.811,3.799,0.811
			s2.61-0.271,3.799-0.811s2.227-1.277,3.114-2.214s1.59-2.04,2.106-3.313C342.315,87.15,342.574,85.771,342.574,84.282z"/>
		<path fill="#FFFFFF" d="M368.037,103.905h-9.83V65.343h2.377l3.24,4.573c1.584-1.44,3.385-2.55,5.401-3.331
			c2.016-0.779,4.104-1.17,6.265-1.17h8.678v9.794h-8.678c-1.032,0-2.005,0.192-2.916,0.576c-0.913,0.384-1.705,0.912-2.377,1.584
			s-1.2,1.464-1.584,2.376c-0.385,0.913-0.576,1.885-0.576,2.917V103.905z"/>
		<path fill="#FFFFFF" d="M400.63,54.865c0,0.913-0.175,1.764-0.522,2.557c-0.349,0.792-0.822,1.482-1.422,2.07
			c-0.601,0.588-1.303,1.057-2.106,1.404c-0.805,0.348-1.663,0.522-2.574,0.522c-0.913,0-1.771-0.174-2.575-0.522
			c-0.804-0.348-1.5-0.816-2.088-1.404c-0.589-0.588-1.057-1.278-1.404-2.07c-0.349-0.792-0.522-1.644-0.522-2.557
			c0-0.888,0.174-1.734,0.522-2.539c0.348-0.804,0.815-1.5,1.404-2.088c0.588-0.588,1.284-1.056,2.088-1.404
			c0.805-0.348,1.662-0.522,2.575-0.522c0.911,0,1.77,0.175,2.574,0.522c0.804,0.348,1.506,0.816,2.106,1.404
			c0.6,0.588,1.073,1.284,1.422,2.088C400.455,53.131,400.63,53.978,400.63,54.865z M398.938,103.905h-9.902V65.343h9.902V103.905z"
			/>
		<path fill="#FFFFFF" d="M440.497,73.013l-7.201,7.236c-0.36-1.008-0.853-1.913-1.477-2.718s-1.326-1.482-2.106-2.034
			c-0.78-0.553-1.626-0.973-2.538-1.261c-0.913-0.288-1.849-0.432-2.809-0.432c-1.345,0-2.61,0.276-3.799,0.828
			c-1.188,0.552-2.221,1.326-3.097,2.322s-1.565,2.178-2.07,3.546c-0.504,1.369-0.756,2.881-0.756,4.537
			c0,1.345,0.252,2.604,0.756,3.78c0.505,1.177,1.194,2.209,2.07,3.097c0.876,0.889,1.909,1.585,3.097,2.089
			c1.188,0.504,2.454,0.756,3.799,0.756c0.96,0,1.884-0.132,2.772-0.396c0.888-0.264,1.722-0.642,2.502-1.134
			c0.78-0.491,1.477-1.092,2.089-1.8s1.11-1.495,1.494-2.358l7.201,7.236c-0.912,1.297-1.962,2.461-3.15,3.493
			s-2.473,1.908-3.853,2.628c-1.381,0.721-2.833,1.267-4.356,1.639c-1.525,0.372-3.091,0.558-4.699,0.558
			c-2.713,0-5.263-0.51-7.651-1.53c-2.389-1.02-4.477-2.418-6.265-4.194c-1.789-1.776-3.199-3.853-4.23-6.229
			c-1.033-2.377-1.549-4.921-1.549-7.634c0-2.952,0.516-5.713,1.549-8.281c1.031-2.568,2.441-4.807,4.23-6.715
			c1.788-1.909,3.876-3.415,6.265-4.519c2.389-1.104,4.938-1.656,7.651-1.656c1.608,0,3.187,0.204,4.734,0.612
			c1.549,0.408,3.025,1.002,4.429,1.782c1.404,0.78,2.701,1.734,3.889,2.862C438.606,70.252,439.633,71.548,440.497,73.013z"/>
	</g>
	<g>
		<defs>
			<rect id="SVGID_1_" width="454" height="143"/>
		</defs>
		<use xlink:href="#SVGID_1_"  overflow="visible" fill="#FFFFFF"/>
		<clipPath id="SVGID_2_">
			<use xlink:href="#SVGID_1_"  overflow="visible"/>
		</clipPath>
		<path clip-path="url(#SVGID_2_)" fill="#FFFFFF" d="M90.574,87.261c-3.299,4.319-8.381,7.042-14.146,7.042
			c-10.248,0-18.173-8.325-18.173-18.973c0-10.487,7.925-18.973,18.092-18.973c7.717,0,14.258,4.97,16.908,12
			c4.008,4.007,9.05,6.841,13.953,8.554c0.027-0.524,0.04-1.051,0.04-1.581c0-17.051-13.769-30.821-30.901-30.821
			c-17.051,0-30.82,13.77-30.82,30.821s13.769,30.9,30.901,30.9c14.117,0,25.984-9.493,29.65-22.438
			C101.057,83.932,95.562,84.99,90.574,87.261"/>
		<path clip-path="url(#SVGID_2_)" fill="#FFFFFF" d="M39.225,37.496c2.875-2.846,6.08-5.361,9.555-7.474
			c7.8-4.741,16.949-7.474,26.725-7.474c9.776,0,18.926,2.733,26.726,7.474c3.475,2.113,6.679,4.628,9.555,7.474
			c2.309,2.286,4.401,4.789,6.25,7.474c1.214,1.766,2.32,3.61,3.311,5.525c0.628,1.214,1.911,1.949,3.279,1.949
			c2.778,0,4.618-2.945,3.338-5.411c-0.361-0.696-0.735-1.383-1.123-2.063c-1.497-2.623-3.188-5.12-5.056-7.474
			c-2.136-2.69-4.496-5.193-7.06-7.474c-3.208-2.855-6.729-5.365-10.504-7.474c-8.507-4.753-18.297-7.474-28.716-7.474
			c-10.418,0-20.208,2.721-28.716,7.474c-3.775,2.109-7.295,4.619-10.504,7.474c-2.564,2.282-4.924,4.784-7.06,7.474
			c-1.867,2.354-3.559,4.851-5.056,7.474c-0.387,0.68-0.762,1.367-1.123,2.063c-1.279,2.466,0.56,5.411,3.339,5.411
			c1.367,0,2.65-0.734,3.278-1.949c0.991-1.914,2.097-3.759,3.312-5.525C34.823,42.286,36.915,39.782,39.225,37.496"/>
		<path clip-path="url(#SVGID_2_)" fill="#FFFFFF" d="M37.096,59.918c1.444,0,2.758-0.832,3.37-2.14
			c0.872-1.863,1.885-3.647,3.033-5.334c1.886-2.772,4.126-5.28,6.648-7.474c3.77-3.28,8.176-5.841,13.009-7.474
			c3.881-1.311,8.032-2.034,12.35-2.034c4.319,0,8.469,0.722,12.351,2.034c4.833,1.633,9.239,4.194,13.008,7.474
			c2.522,2.194,4.763,4.702,6.648,7.474c1.148,1.687,2.162,3.471,3.033,5.334c0.612,1.308,1.926,2.14,3.37,2.14
			c2.717,0,4.564-2.823,3.413-5.283c-0.346-0.741-0.712-1.472-1.097-2.191c-1.422-2.656-3.094-5.159-4.988-7.474
			c-2.274-2.781-4.869-5.288-7.723-7.474c-4.294-3.29-9.175-5.847-14.463-7.474c-4.287-1.32-8.837-2.034-13.552-2.034
			c-4.714,0-9.264,0.714-13.551,2.034c-5.288,1.627-10.17,4.184-14.463,7.474c-2.854,2.186-5.449,4.693-7.724,7.474
			c-1.894,2.315-3.566,4.818-4.988,7.474c-0.385,0.719-0.75,1.45-1.098,2.191C32.532,57.095,34.38,59.918,37.096,59.918"/>
		<path clip-path="url(#SVGID_2_)" fill="#FFFFFF" d="M69.253,117.105c-0.005-0.025-0.01-0.051-0.015-0.076
			c-0.335-1.735-1.869-2.982-3.636-2.982H65.52c-2.319,0-4.069,2.108-3.627,4.384c0.005,0.025,0.009,0.051,0.014,0.075
			c0.336,1.746,1.849,3.017,3.627,3.017h0.083C67.946,121.522,69.691,119.393,69.253,117.105"/>
		<path clip-path="url(#SVGID_2_)" fill="#FFFFFF" d="M73.795,129.119c-0.005-0.024-0.01-0.05-0.015-0.075
			c-0.335-1.735-1.869-2.982-3.636-2.982h-0.083c-2.318,0-4.069,2.108-3.627,4.384c0.005,0.025,0.01,0.05,0.014,0.075
			c0.337,1.746,1.849,3.016,3.627,3.016h0.084C72.489,133.536,74.233,131.407,73.795,129.119"/>
		<path clip-path="url(#SVGID_2_)" fill="#FFFFFF" d="M133.271,57.991c-0.005-0.025-0.01-0.05-0.015-0.075
			c-0.335-1.736-1.869-2.983-3.636-2.983h-0.083c-2.319,0-4.069,2.108-3.627,4.384c0.005,0.025,0.009,0.05,0.014,0.075
			c0.336,1.746,1.849,3.016,3.627,3.016h0.083C131.963,62.408,133.708,60.28,133.271,57.991"/>
		<path clip-path="url(#SVGID_2_)" fill="#FFFFFF" d="M37.649,67.702l-0.006-0.023c-0.468-1.582-1.921-2.668-3.571-2.668h-0.019
			c-2.487,0-4.279,2.386-3.583,4.774c0.465,1.6,1.93,2.7,3.596,2.7h0.008C36.565,72.485,38.354,70.09,37.649,67.702"/>
		<path clip-path="url(#SVGID_2_)" fill="#FFFFFF" d="M16.563,66.714c-0.002,0.025-0.004,0.051-0.006,0.077
			c-0.146,1.761,0.995,3.376,2.697,3.852l0.08,0.023c2.232,0.625,4.486-0.932,4.675-3.243c0.002-0.025,0.004-0.051,0.006-0.076
			c0.148-1.773-0.966-3.403-2.679-3.882l-0.08-0.023C19.012,62.814,16.757,64.393,16.563,66.714"/>
		<path clip-path="url(#SVGID_2_)" fill="#FFFFFF" d="M37.793,109.377c-2.777-2.973-5.183-6.259-7.184-9.775
			c-1.608-2.824-2.947-5.799-4.003-8.883c-0.686-2.007-1.249-4.061-1.685-6.149c-0.163-0.785-0.793-1.848-1.466-2.285
			c-3.03-1.97-6.503,0.649-5.853,3.77c0.16,0.768,0.336,1.531,0.525,2.29c0.734,2.93,1.689,5.791,2.853,8.561
			c1.331,3.166,2.928,6.213,4.781,9.102c2.32,3.614,5.032,6.98,8.099,10.03c5.468,5.438,12.06,9.853,19.544,12.852
			c2.449,0.98,5.118-0.835,5.118-3.474c0-1.506-0.899-2.88-2.298-3.438C49.059,119.108,42.822,114.76,37.793,109.377"/>
		<path clip-path="url(#SVGID_2_)" fill="#FFFFFF" d="M53.651,106.057c-4.213-2.876-7.766-6.53-10.51-10.705
			c-1.837-2.795-3.318-5.814-4.386-8.991c-0.645-1.92-1.137-3.896-1.474-5.91c-0.181-1.088-0.788-2.083-1.748-2.625
			c-2.899-1.641-6.136,0.781-5.639,3.777c0.134,0.808,0.29,1.609,0.466,2.405c0.652,2.942,1.587,5.803,2.786,8.543
			c1.441,3.291,3.263,6.405,5.421,9.28c3.248,4.326,7.258,8.105,11.911,11.099c0.804,0.518,1.629,1.01,2.473,1.476
			c2.501,1.381,5.571-0.418,5.571-3.274c0-1.362-0.746-2.611-1.938-3.271C55.574,107.3,54.594,106.701,53.651,106.057"/>
		<path clip-path="url(#SVGID_2_)" fill="#FFFFFF" d="M71.915,86.308c1.414,0.595,2.966,0.926,4.593,0.926
			c1.628,0,3.179-0.331,4.594-0.926c2.472-1.041,4.518-2.896,5.807-5.227c0.862-1.563,1.373-3.34,1.451-5.228
			c0.007-0.167,0.026-0.33,0.026-0.499c0-1.68-0.356-3.277-0.988-4.728c-0.936-2.147-2.489-3.962-4.433-5.227
			c-1.861-1.211-4.076-1.922-6.457-1.922c-2.381,0-4.596,0.711-6.457,1.922c-1.944,1.265-3.496,3.08-4.432,5.227
			c-0.633,1.451-0.988,3.048-0.988,4.729c0,0.168,0.018,0.332,0.025,0.498c0.079,1.888,0.589,3.665,1.452,5.228
			C67.396,83.411,69.442,85.267,71.915,86.308"/>
		<path clip-path="url(#SVGID_2_)" fill="#FFFFFF" d="M70.609,99.038c-5.182-1.321-9.795-4.332-13.149-8.696
			c-4.637-6.03-6.137-13.844-4.117-21.434c2.226-8.364,8.826-14.755,17.266-16.759v-1.464c-9.109,2.036-16.25,8.876-18.641,17.857
			c-2.135,8.021-0.545,16.283,4.363,22.668c3.629,4.721,8.647,7.945,14.278,9.295V99.038z"/>
		<path clip-path="url(#SVGID_2_)" fill="#FFFFFF" d="M100.958,67.577c-1.893-5.768-5.764-10.656-10.994-13.837
			c-2.513-1.529-5.25-2.595-8.102-3.182v1.448c8.134,1.757,14.913,7.546,17.688,15.836c-0.279,0.252-0.458,0.613-0.458,1.019
			c0,0.76,0.617,1.377,1.377,1.377c0.761,0,1.378-0.617,1.378-1.377C101.847,68.272,101.477,67.775,100.958,67.577"/>
		<path clip-path="url(#SVGID_2_)" fill="#FFFFFF" d="M97.455,87.677c-0.761,0-1.377,0.617-1.377,1.377
			c0,0.248,0.07,0.479,0.186,0.679c-3.513,4.895-8.636,8.237-14.403,9.5v1.455c6.286-1.295,11.873-4.918,15.656-10.263
			c0.731-0.033,1.315-0.631,1.315-1.371C98.832,88.294,98.216,87.677,97.455,87.677"/>
		<path clip-path="url(#SVGID_2_)" fill="#FFFFFF" d="M83.356,51.271c0,0.76-0.617,1.377-1.377,1.377
			c-0.761,0-1.377-0.617-1.377-1.377c0-0.761,0.616-1.377,1.377-1.377C82.739,49.894,83.356,50.51,83.356,51.271"/>
		<path clip-path="url(#SVGID_2_)" fill="#FFFFFF" d="M71.735,51.372c0,0.76-0.617,1.377-1.377,1.377
			c-0.761,0-1.377-0.617-1.377-1.377c0-0.761,0.616-1.377,1.377-1.377C71.118,49.995,71.735,50.611,71.735,51.372"/>
		<path clip-path="url(#SVGID_2_)" fill="#FFFFFF" d="M83.356,99.661c0,0.761-0.617,1.377-1.377,1.377
			c-0.761,0-1.377-0.616-1.377-1.377c0-0.76,0.616-1.377,1.377-1.377C82.739,98.284,83.356,98.901,83.356,99.661"/>
		<path clip-path="url(#SVGID_2_)" fill="#FFFFFF" d="M71.735,99.762c0,0.761-0.617,1.377-1.377,1.377
			c-0.761,0-1.377-0.616-1.377-1.377s0.616-1.377,1.377-1.377C71.118,98.385,71.735,99.001,71.735,99.762"/>
		<path clip-path="url(#SVGID_2_)" fill="#FFFFFF" d="M51.749,74.821l-6.216,0.064c-0.002,0.147-0.006,0.296-0.006,0.444
			c0,0.327,0.007,0.654,0.017,0.979l6.219-0.065L51.749,74.821z"/>
	</g>
</g>
</svg>
