<svg xmlns="http://www.w3.org/2000/svg" xmlns:xlink="http://www.w3.org/1999/xlink" version="1.1" id="Layer_1" x="0px" y="0px" width="454px" height="143px" viewBox="0 0 454 143" enable-background="new 0 0 454 143" xml:space="preserve" fill="#fff">
<path d="M192.484,96.717c-3.262,4.854-10.014,7.967-16.841,7.967c-11.53,0-20.785-9.029-20.785-19.951  c0-11.076,8.875-20.027,19.875-20.027c9.482,0,16.765,6.372,19.116,13.502l-21.391,15.322c0.985,0.381,2.047,0.455,3.185,0.455  c3.262,0,6.524-1.137,8.269-3.867L192.484,96.717z M166.085,87.234l13.958-9.938c-1.517-1.138-3.262-1.819-5.31-1.819  c-4.931,0-8.951,3.869-8.951,9.254C165.782,85.643,165.857,86.477,166.085,87.234"/>
<path d="M236.465,103.848h-10.696V84.73c0-6.145-3.566-9.254-7.965-9.254c-4.779,0-9.179,3.109-9.179,9.254v19.117  h-10.772V65.539h10.772v2.655c2.124-2.427,6.6-3.489,10.089-3.489c10.47,0,17.751,8.951,17.751,20.027V103.848z"/>
<path d="M131.647,64.705c-3.489,0-7.662,1.669-9.331,3.489v-2.655h-10.772v12.789  c5.374,1.221,10.129,1.008,12.533-0.563l-0.003,0.012c0.459-0.301,0.941-0.543,1.435-0.73c1.408-1.002,3.145-1.568,5.076-1.568  c4.93,0,8.952,3.793,8.952,9.18c0,5.462-4.022,9.33-8.952,9.33c-3.319,0-6.071-1.701-7.549-4.438  c-0.065-0.12-0.313-0.498-0.374-0.565c-0.156-0.17-0.306-0.35-0.448-0.537l-0.002,0.012c-1.623-2.15-5.629-3.704-10.668-4.257  v37.931h10.772V101.12c2.049,2.428,5.917,3.565,9.103,3.565c10.469,0,19.041-9.027,19.041-20.103  C150.46,73.654,142.191,64.705,131.647,64.705"/>
<path d="M252.27,103.904h-9.828V75.137h-4.789v-9.794h4.789v-1.836c0-2.376,0.449-4.609,1.35-6.697  s2.137-3.907,3.709-5.455s3.402-2.772,5.491-3.672c2.088-0.9,4.319-1.35,6.696-1.35h7.381v9.793h-7.381  c-1.057,0-2.035,0.186-2.935,0.558c-0.899,0.373-1.681,0.888-2.341,1.548s-1.184,1.44-1.566,2.34  c-0.384,0.9-0.576,1.878-0.576,2.935v1.836h12.063v9.794H252.27V103.904z"/>
<path d="M306.021,103.904h-2.377l-3.816-5.293c-0.938,0.842-1.928,1.628-2.971,2.359  c-1.045,0.731-2.144,1.367-3.295,1.907s-2.334,0.968-3.547,1.278c-1.213,0.312-2.441,0.468-3.689,0.468  c-2.713,0-5.264-0.456-7.651-1.368c-2.389-0.912-4.478-2.236-6.265-3.979c-1.789-1.74-3.199-3.87-4.231-6.392  c-1.032-2.521-1.548-5.389-1.548-8.604c0-3,0.516-5.756,1.548-8.264c1.032-2.509,2.442-4.664,4.231-6.463  c1.787-1.8,3.876-3.198,6.265-4.195c2.388-0.996,4.938-1.494,7.651-1.494c1.248,0,2.484,0.156,3.708,0.468  c1.225,0.312,2.413,0.744,3.565,1.296c1.15,0.553,2.25,1.201,3.293,1.944c1.045,0.745,2.022,1.548,2.936,2.413l3.816-4.573h2.377  V103.904z M296.118,84.282c0-1.345-0.259-2.646-0.772-3.907c-0.518-1.26-1.22-2.376-2.106-3.348  c-0.89-0.973-1.927-1.752-3.114-2.342c-1.188-0.588-2.455-0.881-3.799-0.881c-1.346,0-2.61,0.229-3.799,0.684  s-2.221,1.129-3.098,2.017c-0.875,0.89-1.566,1.986-2.07,3.295c-0.504,1.31-0.756,2.804-0.756,4.482  c0,1.681,0.252,3.175,0.756,4.481c0.504,1.31,1.195,2.407,2.07,3.295c0.877,0.889,1.908,1.562,3.098,2.017  c1.188,0.457,2.453,0.685,3.799,0.685c1.344,0,2.609-0.294,3.799-0.882c1.188-0.588,2.227-1.368,3.114-2.341s1.59-2.088,2.106-3.35  C295.859,86.93,296.118,85.627,296.118,84.282z"/>
<path d="M352.476,84.282c0,3.024-0.517,5.784-1.548,8.28c-1.031,2.498-2.437,4.64-4.213,6.428  c-1.775,1.789-3.858,3.175-6.247,4.158s-4.951,1.477-7.688,1.477c-2.713,0-5.264-0.504-7.651-1.512  c-2.389-1.01-4.477-2.412-6.265-4.213s-3.199-3.942-4.23-6.428c-1.032-2.484-1.549-5.215-1.549-8.19V50.004h9.866v18.003  c0.526-0.671,1.17-1.272,1.926-1.8c0.757-0.528,1.572-0.959,2.448-1.296c0.876-0.336,1.782-0.594,2.719-0.774  c0.937-0.18,1.849-0.27,2.736-0.27c2.735,0,5.299,0.51,7.688,1.53c2.388,1.021,4.471,2.443,6.247,4.267  c1.776,1.825,3.181,3.979,4.213,6.463C351.959,78.611,352.476,81.33,352.476,84.282z M342.574,84.282  c0-1.488-0.259-2.874-0.774-4.159c-0.517-1.283-1.219-2.395-2.105-3.33c-0.888-0.936-1.927-1.668-3.114-2.195  c-1.188-0.529-2.454-0.793-3.799-0.793c-1.346,0-2.61,0.295-3.799,0.883s-2.228,1.367-3.114,2.34  c-0.888,0.973-1.584,2.089-2.088,3.349c-0.504,1.261-0.757,2.563-0.757,3.907c0,1.488,0.253,2.867,0.757,4.141  s1.2,2.376,2.088,3.313c0.888,0.938,1.927,1.675,3.114,2.215s2.453,0.811,3.799,0.811c1.345,0,2.609-0.271,3.799-0.811  s2.227-1.277,3.114-2.215c0.887-0.937,1.59-2.039,2.105-3.313S342.574,85.771,342.574,84.282z"/>
<path d="M368.037,103.904h-9.83V65.343h2.377l3.24,4.573c1.584-1.44,3.385-2.55,5.4-3.331  c2.017-0.779,4.104-1.17,6.266-1.17h8.678v9.794h-8.678c-1.032,0-2.005,0.191-2.916,0.576c-0.913,0.384-1.705,0.912-2.377,1.584  s-1.2,1.464-1.584,2.376c-0.386,0.913-0.576,1.885-0.576,2.917V103.904L368.037,103.904z"/>
<path d="M400.63,54.865c0,0.913-0.175,1.764-0.521,2.557c-0.35,0.792-0.822,1.482-1.423,2.07  c-0.601,0.588-1.303,1.057-2.105,1.404c-0.805,0.348-1.663,0.522-2.574,0.522c-0.913,0-1.771-0.174-2.575-0.522  c-0.804-0.348-1.5-0.816-2.088-1.404c-0.589-0.588-1.057-1.278-1.403-2.07c-0.35-0.792-0.522-1.644-0.522-2.557  c0-0.888,0.174-1.734,0.522-2.539c0.348-0.804,0.814-1.5,1.403-2.088c0.588-0.588,1.284-1.056,2.088-1.404  c0.806-0.348,1.662-0.522,2.575-0.522c0.911,0,1.771,0.175,2.574,0.522c0.804,0.348,1.506,0.816,2.105,1.404  c0.601,0.588,1.073,1.284,1.423,2.088C400.455,53.131,400.63,53.978,400.63,54.865z M398.938,103.904h-9.901V65.343h9.901V103.904z"/>
<path d="M440.497,73.014l-7.201,7.235c-0.36-1.008-0.853-1.913-1.477-2.718s-1.326-1.482-2.106-2.034  c-0.78-0.554-1.626-0.974-2.538-1.261c-0.913-0.288-1.849-0.432-2.809-0.432c-1.345,0-2.61,0.275-3.799,0.827  s-2.222,1.326-3.098,2.322s-1.564,2.178-2.069,3.546c-0.504,1.369-0.756,2.881-0.756,4.537c0,1.345,0.252,2.604,0.756,3.779  c0.505,1.178,1.193,2.209,2.069,3.098s1.909,1.585,3.098,2.089c1.188,0.504,2.454,0.756,3.799,0.756c0.96,0,1.884-0.132,2.771-0.396  c0.889-0.264,1.723-0.643,2.502-1.135c0.78-0.49,1.478-1.092,2.09-1.799c0.611-0.709,1.109-1.496,1.493-2.359l7.201,7.236  c-0.912,1.297-1.962,2.461-3.149,3.493c-1.188,1.032-2.474,1.908-3.854,2.628c-1.381,0.721-2.833,1.268-4.355,1.639  c-1.525,0.373-3.092,0.559-4.699,0.559c-2.713,0-5.263-0.51-7.651-1.53c-2.389-1.02-4.477-2.418-6.265-4.194  c-1.789-1.775-3.199-3.853-4.23-6.229c-1.032-2.377-1.549-4.921-1.549-7.634c0-2.952,0.517-5.713,1.549-8.281  c1.031-2.567,2.441-4.807,4.23-6.715c1.788-1.909,3.876-3.415,6.265-4.519c2.39-1.104,4.938-1.656,7.651-1.656  c1.607,0,3.187,0.204,4.733,0.612c1.55,0.408,3.025,1.002,4.43,1.782c1.403,0.78,2.701,1.734,3.889,2.862  C438.606,70.252,439.633,71.548,440.497,73.014z"/>
<path d="M39.225,37.496c2.875-2.846,6.08-5.361,9.555-7.474c7.8-4.741,16.949-7.474,26.725-7.474  c9.776,0,18.926,2.733,26.726,7.474c3.475,2.113,6.679,4.628,9.555,7.474c2.309,2.286,4.401,4.789,6.25,7.474  c1.214,1.766,2.32,3.61,3.311,5.525c0.628,1.214,1.911,1.949,3.279,1.949c2.778,0,4.618-2.945,3.338-5.411  c-0.361-0.696-0.735-1.383-1.123-2.063c-1.497-2.623-3.188-5.12-5.056-7.474c-2.136-2.69-4.496-5.193-7.06-7.474  c-3.208-2.855-6.729-5.365-10.504-7.474c-8.507-4.753-18.297-7.474-28.716-7.474c-10.418,0-20.208,2.721-28.716,7.474  c-3.775,2.109-7.295,4.619-10.504,7.474c-2.564,2.282-4.924,4.784-7.06,7.474c-1.867,2.354-3.559,4.851-5.056,7.474  c-0.387,0.68-0.762,1.367-1.123,2.063c-1.279,2.466,0.56,5.411,3.339,5.411c1.367,0,2.65-0.734,3.278-1.949  c0.991-1.914,2.097-3.759,3.312-5.525C34.823,42.286,36.915,39.782,39.225,37.496"/>
<path d="M37.096,59.918c1.444,0,2.758-0.832,3.37-2.14c0.872-1.863,1.885-3.647,3.033-5.334  c1.886-2.772,4.126-5.28,6.648-7.474c3.77-3.28,8.176-5.841,13.009-7.474c3.881-1.311,8.032-2.034,12.35-2.034  c4.319,0,8.469,0.722,12.351,2.034c4.833,1.633,9.239,4.194,13.008,7.474c2.522,2.194,4.763,4.702,6.648,7.474  c1.148,1.687,2.162,3.471,3.033,5.334c0.612,1.308,1.926,2.14,3.37,2.14c2.717,0,4.564-2.823,3.413-5.283  c-0.346-0.741-0.712-1.472-1.097-2.191c-1.422-2.656-3.094-5.159-4.988-7.474c-2.274-2.781-4.869-5.288-7.723-7.474  c-4.294-3.29-9.175-5.847-14.463-7.474c-4.287-1.32-8.837-2.034-13.552-2.034c-4.714,0-9.264,0.714-13.551,2.034  c-5.288,1.627-10.17,4.184-14.463,7.474c-2.854,2.186-5.449,4.693-7.724,7.474c-1.894,2.315-3.566,4.818-4.988,7.474  c-0.385,0.719-0.75,1.45-1.098,2.191C32.532,57.095,34.38,59.918,37.096,59.918"/>
<path d="M69.253,117.105c-0.005-0.025-0.01-0.051-0.015-0.076c-0.335-1.735-1.869-2.982-3.636-2.982H65.52  c-2.319,0-4.069,2.107-3.627,4.385c0.005,0.024,0.009,0.051,0.014,0.074c0.336,1.746,1.849,3.018,3.627,3.018h0.083  C67.946,121.521,69.691,119.393,69.253,117.105"/>
<path d="M73.795,129.119c-0.005-0.023-0.01-0.051-0.015-0.075c-0.335-1.735-1.869-2.981-3.636-2.981h-0.083  c-2.318,0-4.069,2.107-3.627,4.383c0.005,0.025,0.01,0.051,0.014,0.076c0.337,1.746,1.849,3.016,3.627,3.016h0.084  C72.489,133.536,74.233,131.407,73.795,129.119"/>
<path d="M133.271,57.991c-0.005-0.025-0.01-0.05-0.015-0.075c-0.335-1.736-1.869-2.983-3.636-2.983h-0.083  c-2.319,0-4.069,2.108-3.627,4.384c0.005,0.025,0.009,0.05,0.014,0.075c0.336,1.746,1.849,3.016,3.627,3.016h0.083  C131.963,62.408,133.708,60.28,133.271,57.991"/>
<path d="M37.649,67.702l-0.006-0.023c-0.468-1.582-1.921-2.668-3.571-2.668h-0.019c-2.487,0-4.279,2.386-3.583,4.774  c0.465,1.6,1.93,2.699,3.596,2.699h0.008C36.565,72.484,38.354,70.09,37.649,67.702"/>
<path d="M16.563,66.714c-0.002,0.025-0.004,0.051-0.006,0.077c-0.146,1.761,0.995,3.376,2.697,3.852l0.08,0.023  c2.232,0.625,4.486-0.932,4.675-3.243c0.002-0.025,0.004-0.051,0.006-0.076c0.148-1.773-0.966-3.403-2.679-3.882l-0.08-0.023  C19.012,62.814,16.757,64.393,16.563,66.714"/>
<path d="M37.793,109.377c-2.777-2.973-5.183-6.259-7.184-9.775c-1.608-2.824-2.947-5.799-4.003-8.883  c-0.686-2.007-1.249-4.061-1.685-6.148c-0.163-0.785-0.793-1.848-1.466-2.285c-3.03-1.971-6.503,0.648-5.853,3.77  c0.16,0.769,0.336,1.531,0.525,2.29c0.734,2.931,1.689,5.791,2.853,8.562c1.331,3.166,2.928,6.213,4.781,9.102  c2.32,3.614,5.032,6.98,8.099,10.03c5.468,5.438,12.06,9.853,19.544,12.853c2.449,0.979,5.118-0.836,5.118-3.475  c0-1.506-0.899-2.88-2.298-3.438C49.059,119.107,42.822,114.76,37.793,109.377"/>
<path d="M53.651,106.057c-4.213-2.875-7.766-6.529-10.51-10.705c-1.837-2.795-3.318-5.813-4.386-8.99  c-0.645-1.92-1.137-3.896-1.474-5.91c-0.181-1.088-0.788-2.083-1.748-2.625c-2.899-1.641-6.136,0.781-5.639,3.777  c0.134,0.808,0.29,1.608,0.466,2.404c0.652,2.942,1.587,5.803,2.786,8.543c1.441,3.291,3.263,6.405,5.421,9.28  c3.248,4.326,7.258,8.104,11.911,11.099c0.804,0.519,1.629,1.01,2.473,1.477c2.501,1.381,5.571-0.418,5.571-3.274  c0-1.362-0.746-2.61-1.938-3.271C55.574,107.3,54.594,106.701,53.651,106.057"/>
<path d="M71.915,86.309c1.414,0.594,2.966,0.926,4.593,0.926c1.628,0,3.179-0.332,4.594-0.926  c2.472-1.041,4.518-2.896,5.807-5.228c0.862-1.563,1.373-3.34,1.451-5.228c0.007-0.168,0.026-0.33,0.026-0.5  c0-1.68-0.356-3.276-0.988-4.728c-0.936-2.147-2.489-3.962-4.433-5.227c-1.861-1.211-4.076-1.922-6.457-1.922  c-2.381,0-4.596,0.711-6.457,1.922c-1.944,1.265-3.496,3.08-4.432,5.227c-0.633,1.451-0.988,3.048-0.988,4.729  c0,0.168,0.018,0.332,0.025,0.498c0.079,1.888,0.589,3.664,1.452,5.228C67.396,83.411,69.442,85.268,71.915,86.309"/>
<path d="M90.574,87.261c-3.299,4.319-8.381,7.042-14.146,7.042c-10.248,0-18.173-8.324-18.173-18.973  c0-10.487,7.925-18.973,18.092-18.973c7.717,0,14.258,4.97,16.908,12c4.008,4.007,9.05,6.841,13.953,8.554  c0.027-0.524,0.04-1.052,0.04-1.581c0-17.051-13.769-30.821-30.901-30.821c-17.051,0-30.82,13.77-30.82,30.821  c0,17.051,13.769,30.9,30.901,30.9c14.117,0,25.984-9.494,29.65-22.438C101.057,83.932,95.562,84.99,90.574,87.261"/>
</svg>